<svg width="30" height="31" viewBox="0 0 30 31" fill="none" xmlns="http://www.w3.org/2000/svg">
<path d="M9.16427 7.55784C6.1807 8.02669 3.90039 9.32668 2.32336 11.5004C0.746326 13.6529 -0.0208815 16.0397 0.000432022 18.7036C0.106986 22.22 1.21517 24.9905 3.30368 26.9724C5.39218 28.9544 8.05609 29.956 11.2741 29.956C13.5331 29.9134 15.579 29.274 17.3904 27.9953C19.2019 26.7167 20.4379 24.7347 21.0986 22.0708C19.3297 24.2233 17.497 25.2675 15.579 25.1823C13.6609 25.097 12.0626 24.6282 10.7626 23.7544C9.46263 22.8806 8.48231 21.3889 7.84298 19.279L20.6937 19.1512C20.5871 14.9955 19.4363 11.9053 17.2412 9.85946C15.0462 7.81358 12.361 7.04637 9.16427 7.55784ZM7.67249 18.6184C7.05446 15.7201 6.84134 13.2693 7.03315 11.266C7.22495 9.24144 7.84298 8.26112 8.92985 8.30374C9.9741 8.34634 10.8479 9.15619 11.5724 10.7119C12.02 11.6922 12.3823 12.7365 12.6593 13.866C12.8298 14.5053 12.9577 15.166 13.0642 15.8479C13.2347 17.361 12.6593 18.2135 11.3167 18.384C10.3577 18.5118 9.14296 18.5971 7.67249 18.6184Z" fill="#0070F3"/>
<path d="M30 30.5177V0C28.7639 1.76884 26.1214 2.55735 22.0935 2.34424L22.0722 30.5177H30Z" fill="#0070F3"/>
</svg>
