<svg width="64" height="64" viewBox="0 0 64 64" fill="none" xmlns="http://www.w3.org/2000/svg">
<circle cx="32" cy="32" r="32" fill="#0070F3"/>
<path d="M29.3337 14.2449C24.6671 14.9934 21.1006 17.0686 18.6339 20.5387C16.1673 23.9747 14.9673 27.7849 15.0007 32.0374C15.1673 37.6507 16.9006 42.0733 20.1672 45.2372C23.4338 48.4011 27.6004 50 32.6336 50C36.1669 49.932 39.3668 48.9114 42.2001 46.8702C45.0334 44.829 46.9667 41.6651 48 37.4126C45.2334 40.8486 42.3668 42.5156 39.3668 42.3795C36.3669 42.2434 33.867 41.495 31.8337 40.1002C29.8004 38.7054 28.2671 36.3239 27.2671 32.956L47.3667 32.7518C47.2 26.1179 45.4001 21.185 41.9668 17.9191C38.5335 14.6532 34.3336 13.4285 29.3337 14.2449ZM27.0004 31.9013C26.0338 27.2746 25.7005 23.3623 26.0005 20.1644C26.3004 16.9325 27.2671 15.3676 28.9671 15.4356C30.6004 15.5036 31.967 16.7965 33.1003 19.2799C33.8003 20.8448 34.3669 22.5118 34.8003 24.3149C35.0669 25.3355 35.2669 26.3901 35.4336 27.4787C35.7003 29.8942 34.8003 31.255 32.7003 31.5271C31.2003 31.7312 29.3004 31.8673 27.0004 31.9013Z" fill="#FAFAFA"/>
</svg>
