<svg width="355" height="68" viewBox="0 0 355 68" fill="none" xmlns="http://www.w3.org/2000/svg">
<path d="M20.1572 18.4219C13.5947 19.4531 8.57908 22.3125 5.11033 27.0938C1.64158 31.8281 -0.0459297 37.0781 0.00095025 42.9375C0.23532 50.6719 2.67283 56.7656 7.26658 61.125C11.8603 65.4844 17.7197 67.6875 24.7978 67.6875C29.7666 67.5938 34.2666 66.1875 38.2509 63.375C42.2353 60.5625 44.9541 56.2031 46.4072 50.3438C42.5166 55.0781 38.4853 57.375 34.2666 57.1875C30.0478 57 26.5322 55.9688 23.6728 54.0469C20.8135 52.125 18.6572 48.8438 17.2509 44.2031L45.5166 43.9219C45.2822 34.7813 42.751 27.9844 37.9228 23.4844C33.0947 18.9844 27.1884 17.2969 20.1572 18.4219ZM16.8759 42.75C15.5166 36.375 15.0478 30.9844 15.4697 26.5781C15.8916 22.125 17.251 19.9688 19.6416 20.0625C21.9385 20.1562 23.8603 21.9375 25.4541 25.3594C26.4385 27.5156 27.2353 29.8125 27.8447 32.2969C28.2197 33.7031 28.501 35.1563 28.7353 36.6563C29.1103 39.9844 27.8447 41.8594 24.8916 42.2344C22.7822 42.5156 20.1103 42.7031 16.8759 42.75Z" fill="#0070F3"/>
<path d="M66.4447 31.5938C67.2416 28.3125 68.6478 25.9688 70.6635 24.4688C72.9603 22.7344 75.2103 22.3594 77.4135 23.2969C79.5697 24.2344 80.7416 26.6719 80.8822 30.5625L80.9291 67.2656H98.1322L98.0853 33C98.0853 32.6719 98.0384 32.2969 98.0384 31.9688C98.7884 28.5 100.195 26.0156 102.304 24.4688C104.648 22.7344 106.898 22.3594 109.101 23.2969C111.257 24.2344 112.429 26.625 112.57 30.5156L112.617 67.2188H129.82L129.773 33C129.632 28.3125 128.132 24.7031 125.273 22.2188C122.367 19.7344 118.945 18.375 115.007 18.0938C111.023 17.8594 107.413 18.7031 104.132 20.625C100.851 22.5469 98.7415 25.5938 97.804 29.7188V30.0938C97.2415 26.8125 95.8353 24.1875 93.5853 22.2656C90.679 19.7813 87.2571 18.4219 83.3196 18.1406C79.3821 17.9063 75.7728 18.7031 72.4915 20.625C69.4915 22.3594 67.5228 24.9844 66.4446 28.5V18C63.1634 22.1719 57.3509 23.9062 49.054 23.1562L49.0071 67.3125H66.4446L66.4447 31.5938Z" fill="#0070F3"/>
<path d="M162.373 33.7969L162.42 57.5156C160.826 59.7188 159.092 60.7969 157.217 60.7031C155.342 60.6094 153.748 59.625 152.435 57.75C151.076 55.9219 150.42 53.4375 150.467 50.3438C150.701 47.3906 151.638 45 153.185 43.125C154.732 41.2969 156.42 39.7031 158.154 38.4375C159.185 37.6406 160.076 36.8438 160.873 36.0938C161.623 35.3906 162.138 34.5938 162.373 33.7969ZM140.951 26.1094C140.623 26.9531 140.482 27.8438 140.482 28.8281C140.482 30.9375 141.232 32.7656 142.732 34.2188C144.232 35.7188 146.013 36.4688 148.123 36.4688C150.232 36.4688 152.06 35.7188 153.56 34.2188C155.06 32.7656 155.81 30.9375 155.81 28.8281C155.81 26.7188 155.013 24.8906 153.373 23.3438C151.732 21.7969 149.67 21.1406 147.092 21.3281C149.623 19.875 152.951 19.7344 157.076 20.8125C161.154 21.9375 162.935 25.5 162.373 31.4531C161.998 33.75 160.732 35.4844 158.576 36.5625C156.373 37.6406 153.795 38.5781 150.795 39.3281C148.31 39.9375 145.826 40.7344 143.435 41.7188C140.998 42.7031 138.888 44.0625 137.107 45.8438C135.326 47.625 134.154 50.0625 133.638 53.2031C133.123 57.1406 133.779 60.3281 135.607 62.7188C137.435 65.1094 139.92 66.6563 143.06 67.2656C146.201 67.875 149.482 67.5 152.998 66.0938C156.467 64.7344 159.607 62.2031 162.42 58.5469C161.998 61.8281 162.326 64.1719 163.31 65.5313C164.295 66.8906 166.076 67.5938 168.607 67.5469H183.326C182.107 67.5469 181.217 67.125 180.701 66.2344C180.185 65.3906 179.857 64.3594 179.763 63.1875C179.623 62.0156 179.576 60.8438 179.623 59.7188L179.576 33.3281C179.529 30 178.592 27.1875 176.67 24.9375C174.748 22.7344 172.31 21.0469 169.357 19.875C166.357 18.75 163.217 18.1406 159.888 18.0938C156.607 18.0469 153.56 18.2813 150.748 18.7969C147.888 19.3125 145.592 20.4375 143.763 22.1719C142.357 23.4844 141.42 24.7969 140.951 26.1094Z" fill="#0070F3"/>
<path d="M202.848 67.1719V0.046875C200.129 3.93751 194.317 5.67188 185.457 5.20312L185.41 67.1719H202.848Z" fill="#0070F3"/>
<path d="M234.323 33.7969L234.37 57.5156C232.776 59.7188 231.042 60.7969 229.167 60.7031C227.292 60.6094 225.698 59.625 224.385 57.75C223.026 55.9219 222.37 53.4375 222.417 50.3438C222.651 47.3906 223.588 45 225.135 43.125C226.682 41.2969 228.37 39.7031 230.104 38.4375C231.135 37.6406 232.026 36.8438 232.823 36.0938C233.573 35.3906 234.088 34.5938 234.323 33.7969ZM212.901 26.1094C212.573 26.9531 212.432 27.8438 212.432 28.8281C212.432 30.9375 213.182 32.7656 214.682 34.2188C216.182 35.7188 217.963 36.4688 220.073 36.4688C222.182 36.4688 224.01 35.7188 225.51 34.2188C227.01 32.7656 227.76 30.9375 227.76 28.8281C227.76 26.7188 226.963 24.8906 225.323 23.3438C223.682 21.7969 221.62 21.1406 219.042 21.3281C221.573 19.875 224.901 19.7344 229.026 20.8125C233.104 21.9375 234.885 25.5 234.323 31.4531C233.948 33.75 232.682 35.4844 230.526 36.5625C228.323 37.6406 225.745 38.5781 222.745 39.3281C220.26 39.9375 217.776 40.7344 215.385 41.7188C212.948 42.7031 210.838 44.0625 209.057 45.8438C207.276 47.625 206.104 50.0625 205.588 53.2031C205.073 57.1406 205.729 60.3281 207.557 62.7188C209.385 65.1094 211.87 66.6563 215.01 67.2656C218.151 67.875 221.432 67.5 224.948 66.0938C228.417 64.7344 231.557 62.2031 234.37 58.5469C233.948 61.8281 234.276 64.1719 235.26 65.5313C236.245 66.8906 238.026 67.5938 240.557 67.5469H255.276C254.057 67.5469 253.167 67.125 252.651 66.2344C252.135 65.3906 251.807 64.3594 251.713 63.1875C251.573 62.0156 251.526 60.8438 251.573 59.7188L251.526 33.3281C251.479 30 250.542 27.1875 248.62 24.9375C246.698 22.7344 244.26 21.0469 241.307 19.875C238.307 18.75 235.167 18.1406 231.838 18.0938C228.557 18.0469 225.51 18.2813 222.698 18.7969C219.838 19.3125 217.542 20.4375 215.713 22.1719C214.307 23.4844 213.37 24.7969 212.901 26.1094Z" fill="#0070F3"/>
<path d="M276.673 0C273.579 4.26562 260.829 4.73437 259.282 4.6875L259.095 67.9219C265.142 64.5938 274.235 61.5 276.485 63.7969C279.063 66.375 283.001 67.9219 287.079 67.9219C295.892 67.9219 310.376 61.125 310.376 43.5C310.235 22.6875 291.438 10.7344 276.673 24.5156V0ZM283.657 66.6094C280.47 66.6094 276.907 62.3438 276.673 56.625C276.673 55.875 276.673 25.5938 276.673 25.5938C294.86 10.6406 297.626 65.4375 283.657 66.6094Z" fill="#0070F3"/>
<path d="M354.226 53.3906C354.226 51.375 353.804 49.5469 353.007 47.9531C352.21 46.4063 351.085 45 349.726 43.7344C348.367 42.5156 346.82 41.3906 345.132 40.3125C343.445 39.2812 341.71 38.2969 339.976 37.3594C337.867 36.1875 335.851 35.0156 333.976 33.7969C332.101 32.5781 330.601 31.2187 329.429 29.7187C328.257 28.2656 327.648 26.4844 327.648 24.4687C327.695 23.2031 328.023 22.125 328.726 21.2344C329.429 20.3438 330.413 19.8281 331.679 19.6875C333.507 19.5469 335.476 19.9219 337.632 20.8594C339.788 21.7969 341.898 22.9219 343.913 24.2344C345.929 25.5469 347.57 26.6719 348.929 27.6562C349.726 28.2656 350.288 28.6875 350.71 28.9219L350.992 20.2969C347.945 19.3125 344.617 18.6563 341.007 18.4219C337.398 18.1875 334.538 18.0938 332.429 18.1406H332.007C328.679 18.1406 325.679 18.6094 322.913 19.5469C320.148 20.5313 317.992 21.9375 316.351 23.8594C314.71 25.7813 313.867 28.2188 313.867 31.0781C313.867 33.5156 314.288 35.625 315.179 37.4531C316.023 39.2813 317.148 40.9219 318.554 42.3281C319.96 43.7813 321.554 45.0469 323.288 46.2187C325.023 47.3906 326.804 48.4688 328.632 49.5469C331.21 51 333.601 52.5469 335.804 54.1875C337.96 55.8281 339.601 57.7969 340.679 60.0469C341.382 61.8281 340.913 63.375 339.32 64.7344C337.726 66.0938 335.195 66.4688 331.726 65.8594C329.523 65.3438 327.085 64.3125 324.507 62.8125C321.929 61.3125 319.492 59.8125 317.242 58.3125C315.648 57.2344 314.288 56.3906 313.21 55.7344L313.117 64.3125C314.945 65.2031 318.039 65.9531 322.351 66.5156C326.617 67.0781 330.507 67.4062 333.976 67.5C337.82 67.4531 341.242 66.8438 344.289 65.6719C347.335 64.5 349.726 62.8125 351.554 60.7031C353.335 58.5938 354.226 56.1563 354.226 53.3906Z" fill="#0070F3"/>
</svg>
